<svg width="310" height="310" xmlns="http://www.w3.org/2000/svg" xml:space="preserve" version="1.1">

 <g>
  <title>Layer 1</title>
  <path fill="#ffffff" id="svg_10" d="m58.12,308.6l194.02,0c31.03,0 56.18,-25.15 56.18,-56.18l0,-194.03c0,-31.03 -25.15,-56.18 -56.18,-56.18l-194.02,0c-31.03,0 -56.18,25.15 -56.18,56.18l0,194.02c0,31.03 25.15,56.19 56.18,56.19z"/>
  <g id="svg_11">
   <path id="svg_12" fill="#000000" d="m118.36,155.52c2.33,-1.44 4.54,-2.91 6.74,-4.69l1.27,-1.03l-0.64,-1.27c-0.45,-0.88 -0.91,-1.71 -1.38,-2.52c-1.29,-0.17 -2.71,-0.38 -4.24,-0.64c0.51,1.03 1,2.08 1.44,3.12c-1.74,1.04 -3.59,2.05 -5.43,2.96c-2.3,1.13 -4.66,2.14 -7.03,3.08c-4.76,1.83 -9.64,3.27 -14.57,4.03c-4.93,0.78 -9.91,0.87 -14.74,0.1c-2.41,-0.42 -4.82,-1 -6.97,-1.89c-2.21,-0.85 -4.25,-2.11 -6.1,-3.6c-3.69,-2.99 -6.53,-7.21 -7.64,-12c-0.57,-2.38 -0.73,-4.88 -0.47,-7.38c0.29,-2.49 1.01,-4.96 2.11,-7.25c0.94,-2.03 2.24,-3.89 3.78,-5.55c-0.26,-0.22 -0.53,-0.44 -0.79,-0.66c-0.23,0.2 -0.46,0.41 -0.67,0.63l-1.39,1.48l-1.25,1.61c-0.43,0.53 -0.74,1.14 -1.12,1.71c-1.39,2.35 -2.48,4.91 -3.09,7.63c-0.59,2.72 -0.73,5.56 -0.38,8.38c0.36,2.81 1.16,5.6 2.49,8.15c1.32,2.55 3.07,4.89 5.14,6.92c2.06,2.04 4.49,3.73 7.13,4.97c2.68,1.24 5.39,2.08 8.17,2.63c5.57,1.11 11.3,0.99 16.78,0.05c5.49,-0.96 10.75,-2.75 15.69,-5.08c2.46,-1.15 4.84,-2.48 7.16,-3.89z" class="st0"/>
   <path id="svg_13" fill="#000000" d="m54.26,87.81c0.21,-7.64 3.02,-15.18 7.96,-20.81c2.43,-2.83 5.3,-5.26 8.47,-7.11c3.19,-1.82 6.63,-3.09 10.15,-3.74c7.07,-1.36 14.38,-0.01 20.57,3.13c3.1,1.58 5.99,3.57 8.43,6.03c0.67,0.55 1.2,1.24 1.79,1.87l0.87,0.95c0.28,0.34 0.55,0.7 0.83,1.05c1.13,1.39 2.14,2.87 3.15,4.34l1.42,2.28c0.45,0.78 0.86,1.57 1.3,2.36c0.46,0.77 0.81,1.61 1.22,2.4c0.42,0.8 0.76,1.63 1.12,2.46c1.4,3.32 2.61,6.75 3.54,10.29c1.9,7.05 2.87,14.44 3.24,21.89c0.16,3.73 0.18,7.48 0.01,11.23c-0.08,1.88 -0.19,3.75 -0.36,5.62c-0.1,1.13 -0.22,2.28 -0.36,3.41c-0.7,0.01 -1.42,0.01 -2.11,0c-1.55,-0.02 -3.1,-0.07 -4.65,-0.17c-3.11,-0.19 -6.22,-0.51 -9.32,-0.96c-6.19,-0.92 -12.35,-2.37 -18.28,-4.5c-5.94,-2.11 -11.67,-4.89 -16.98,-8.36c-5.33,-3.44 -10.13,-7.68 -14.38,-12.41c2.13,2.36 4.31,4.68 6.71,6.76c1.15,1.1 2.41,2.08 3.61,3.11c1.27,0.96 2.5,1.97 3.82,2.87c5.16,3.74 10.76,6.89 16.59,9.55c5.84,2.65 11.94,4.8 18.19,6.45c3.13,0.82 6.3,1.51 9.5,2.06c1.6,0.28 3.21,0.51 4.84,0.71c1.64,0.2 3.21,0.36 4.99,0.44l2.09,0.09l0.61,-2.29c0.55,-2.04 0.97,-3.93 1.34,-5.9c0.37,-1.96 0.69,-3.92 0.96,-5.89c0.51,-3.94 0.86,-7.92 0.94,-11.92c0.19,-7.99 -0.52,-16.09 -2.49,-24c-1.01,-3.95 -2.28,-7.86 -3.95,-11.62c-1.65,-3.77 -3.65,-7.42 -6.04,-10.81c-1.22,-1.68 -2.45,-3.35 -3.85,-4.88c-0.34,-0.39 -0.67,-0.79 -1.03,-1.17l-1.14,-1.13c-0.77,-0.74 -1.49,-1.54 -2.34,-2.19c-3.23,-2.79 -6.93,-5.04 -10.87,-6.61c-3.93,-1.6 -8.11,-2.53 -12.31,-2.78c-4.2,-0.26 -8.42,0.31 -12.39,1.49c-3.97,1.19 -7.69,3.07 -10.99,5.47c-3.27,2.43 -6.06,5.41 -8.36,8.66l-0.84,1.24c-0.28,0.41 -0.56,0.82 -0.78,1.27c-0.47,0.88 -0.96,1.74 -1.42,2.62l-1.17,2.73c-0.38,0.91 -0.62,1.88 -0.94,2.81c-1.13,3.77 -1.63,7.7 -1.55,11.6c0.17,7.81 3.19,15.41 8.26,21.24c-5,-5.84 -7.9,-13.54 -7.62,-21.23z" class="st0"/>
   <path id="svg_14" fill="#000000" d="m252.52,66.25c-1.94,-0.32 -3.87,-0.51 -5.75,-0.44c-1.87,0.08 -3.69,0.32 -5.38,0.78c-1.69,0.46 -3.27,1.08 -4.73,1.81c-1.45,0.76 -2.78,1.62 -4.02,2.57c-1.61,1.25 -3.05,2.63 -4.34,4.1c-1.21,-1.25 -2.49,-2.45 -3.82,-3.57c-1.94,-1.6 -3.99,-3.06 -6.14,-4.36c-2.16,-1.29 -4.41,-2.42 -6.72,-3.41c-2.33,-0.94 -4.73,-1.71 -7.17,-2.32c-1.11,-0.27 -2.23,-0.49 -3.35,-0.69c0.15,-0.38 0.3,-0.75 0.45,-1.13c1.26,-3.02 2.79,-5.91 4.64,-8.45c0.93,-1.27 1.93,-2.46 3,-3.53c1.09,-1.06 2.24,-2 3.45,-2.8c1.21,-0.8 2.49,-1.41 3.79,-1.9c1.3,-0.48 2.65,-0.75 3.99,-0.95l0.06,-0.01c0.29,-0.04 0.57,-0.12 0.85,-0.22c2.22,-0.83 3.35,-3.3 2.52,-5.52s-3.3,-3.35 -5.52,-2.52c-1.86,0.7 -3.67,1.52 -5.32,2.59c-1.64,1.07 -3.17,2.28 -4.49,3.64c-1.32,1.36 -2.48,2.83 -3.49,4.36c-0.99,1.54 -1.83,3.14 -2.55,4.76c-1.43,3.25 -2.36,6.6 -2.98,9.96c-0.09,0.48 -0.16,0.96 -0.24,1.44c-0.75,-0.1 -1.49,-0.2 -2.24,-0.27c-5.01,-0.4 -10.08,-0.1 -14.97,0.99c-0.57,0.13 -1.14,0.27 -1.71,0.42c-2.65,0.63 -5.26,1.47 -7.82,2.54c-12.56,5.22 -22.33,15.03 -27.51,27.6c-5.18,12.57 -5.16,26.41 0.06,38.97c5.13,12.32 14.71,22 26.97,27.25c0.03,0.01 0.06,0.02 0.08,0.04c0.1,0.04 0.19,0.07 0.29,0.1c0.12,0.06 0.25,0.12 0.38,0.18c15.45,6.32 24.77,21.34 24.64,37.1c-7.76,-0.28 -15.52,-1.39 -23.12,-3.49c-4.4,-1.24 -8.73,-2.8 -12.98,-4.63c-4.22,-1.9 -8.36,-4.06 -12.38,-6.51c-7.52,-4.69 -14.58,-10.34 -20.98,-16.78c1.01,-1.23 2.08,-2.42 3.21,-3.57c1.28,-1.26 2.61,-2.5 4.04,-3.63c1.4,-1.2 2.93,-2.22 4.47,-3.3c-7.3,1.76 -14.23,5.84 -19.7,11.54c-5.5,5.7 -9.45,13.01 -11.4,20.94c-0.45,1.99 -0.84,4.01 -1.05,6.05c-0.24,2.04 -0.27,4.1 -0.25,6.17c0.1,4.13 0.76,8.25 1.9,12.24c0.31,0.99 0.59,2 0.97,2.96l0.55,1.46l0.61,1.44c0.39,0.97 0.89,1.88 1.33,2.83c0.5,0.92 0.97,1.84 1.51,2.74c2.17,3.56 4.75,6.89 7.74,9.82c1.7,1.63 3.51,3.16 5.41,4.55l-16.99,43.9l26.05,-38.69l1.15,0.48c0.95,0.42 1.94,0.75 2.91,1.11c0.99,0.32 1.98,0.63 2.99,0.89c0.46,0.12 0.92,0.24 1.38,0.35c24.32,6.42 50.3,-6.05 60.08,-29.95c10.63,-25.99 -1.86,-55.78 -27.85,-66.41c-0.1,-0.04 -0.2,-0.07 -0.3,-0.11c-0.1,-0.05 -0.19,-0.1 -0.29,-0.14c-9.56,-4.09 -17.02,-11.63 -21.02,-21.24c-4.07,-9.79 -4.09,-20.57 -0.05,-30.37c4.04,-9.8 11.65,-17.44 21.44,-21.51c1.81,-0.75 3.66,-1.37 5.53,-1.84c0.64,-0.14 1.28,-0.28 1.93,-0.39c1.92,-0.29 3.85,-0.55 5.79,-0.6c1.94,-0.04 3.88,0.01 5.8,0.24c1.92,0.22 3.83,0.55 5.7,1.02c1.87,0.49 3.7,1.11 5.5,1.84c1.79,0.74 3.52,1.6 5.2,2.57c1.67,0.98 3.24,2.11 4.77,3.29c1.52,1.19 2.94,2.52 4.28,3.92c1.34,1.4 2.53,2.94 3.69,4.5c1.13,1.58 2.13,3.27 3.04,5c0.87,1.76 1.68,3.55 2.34,5.41c1.28,3.72 2.09,7.63 2.32,11.61c0.47,7.97 -1.35,16.22 -5.35,23.56c-1.99,3.67 -4.53,7.11 -7.53,10.2c-1.5,1.55 -3.14,2.98 -4.86,4.35c-1.72,1.38 -3.58,2.58 -5.49,3.78c8.73,-2.2 16.88,-7.62 22.73,-15.1c5.88,-7.46 9.42,-16.98 9.85,-26.8c0.46,-9.84 -2.26,-19.87 -7.66,-28.29c-1.24,-1.95 -2.63,-3.8 -4.15,-5.55c1.59,-1.1 3.26,-2.07 5.01,-2.84c1.3,-0.57 2.63,-1.04 3.99,-1.39c1.37,-0.33 2.75,-0.53 4.13,-0.6c1.38,-0.07 2.77,0.05 4.11,0.27c1.35,0.22 2.68,0.65 3.96,1.12l0.05,0.02c0.27,0.1 0.56,0.17 0.85,0.22c2.31,0.38 4.22,-1.04 4.26,-3.18s-1.77,-4.21 -4.08,-4.59zm-127.94,102.37c0.07,-0.11 0.15,-0.22 0.22,-0.33c5.3,7.31 11.43,14.12 18.36,20.22c3.88,3.35 8,6.47 12.33,9.35c4.36,2.81 8.93,5.38 13.69,7.62c7.52,3.5 15.5,6.15 23.69,7.98c-2.43,4.62 -5.68,8.58 -9.49,11.8c-6.09,-1.42 -12.1,-3.38 -17.92,-5.98c-8.15,-3.59 -15.93,-8.31 -23.18,-13.9c-7.25,-5.6 -13.96,-12.07 -20.05,-19.18c-1.15,-1.35 -2.27,-2.74 -3.38,-4.13c1.17,-4.69 3.07,-9.25 5.73,-13.45zm23.27,64.76c-0.41,-0.12 -0.83,-0.23 -1.24,-0.37c-3.07,-1.02 -6.03,-2.37 -8.78,-4.04c-2.77,-1.64 -5.3,-3.64 -7.58,-5.88c-2.32,-2.21 -4.32,-4.75 -6.04,-7.46c-1.77,-2.69 -3.12,-5.64 -4.23,-8.68c-1.1,-3.05 -1.77,-6.24 -2.19,-9.48c-0.16,-1.62 -0.28,-3.26 -0.25,-4.9c-0.03,-1.49 0.08,-2.98 0.23,-4.47c0.17,0.3 0.34,0.61 0.52,0.91c4.96,8.3 10.74,16.21 17.42,23.48c6.68,7.26 14.25,13.88 22.69,19.49c1.24,0.83 2.5,1.63 3.78,2.41c-4.71,0.53 -9.56,0.23 -14.33,-1.01z" class="st0"/>
  </g>
 </g>
</svg>