<svg width="128" height="56" xmlns="http://www.w3.org/2000/svg">
 <!-- Created with Method Draw - http://github.com/duopixel/Method-Draw/ -->
 <g id="Layer_1">
  <title>Layer 1</title>
  <g id="svg_1">
   <text font-weight="normal" font-size="18.6712px" font-family="'Merienda One'" fill="#222222" fill-rule="nonzero" id="svg_2" transform="matrix(1.3333333,0,0,1.3333333,11.9453330347,37.89826957521001) ">
    <tspan id="svg_1" y="0" x="0 8.2713413 17.606941 26.961212 36.576881 41.468735 47.574219 57.787365">seekitup</tspan>
   </text>
   <g transform="matrix(1.3333333,0,0,-1.3333333,0,154.24) " id="svg_4">
    <path fill="#222222" fill-rule="nonzero" id="svg_3" d="m84.7876,102.3748c-0.57,-0.031 -1.103,1.128 -1.181,2.591c-0.08,1.461 0.318,2.672 0.891,2.703c0.573,0.032 1.102,-1.128 1.182,-2.589c0.082,-1.462 -0.318,-2.673 -0.892,-2.705m-3.485,4.452c0.218,-0.011 0.43,-0.015 0.638,-0.011l1.177,-1.177c-0.004,-0.208 0,-0.421 0.011,-0.639l-1.826,1.827zm-0.035,0.478c-1.462,0.08 -2.622,0.61 -2.59,1.181c0.032,0.572 1.242,0.972 2.704,0.892c1.463,-0.081 2.621,-0.61 2.59,-1.183c-0.032,-0.572 -1.241,-0.97 -2.704,-0.89m4.91,-2.199c-0.024,0.447 -0.079,0.871 -0.154,1.266c0.062,0.051 0.125,0.106 0.183,0.166c0.927,0.926 0.927,2.431 0,3.358c-0.928,0.927 -2.43,0.927 -3.357,0c-0.058,-0.058 -0.11,-0.116 -0.161,-0.179c-0.4,0.078 -0.83,0.134 -1.281,0.158c-2.148,0.119 -3.34,-0.468 -3.387,-1.31c-0.038,-0.676 0.681,-1.312 2.083,-1.596l3.168,-3.169c0.286,-1.4 0.92,-2.117 1.596,-2.081c0.841,0.046 1.429,1.239 1.31,3.387"/>
   </g>
   <g transform="matrix(1.3333333,0,0,-1.3333333,0,154.24) " id="svg_6">
    <path fill="#222222" fill-rule="nonzero" id="svg_5" d="m82.9321,103.2635l-3.355,3.357c-0.924,-0.994 -1.061,-2.412 -0.352,-3.331l-0.902,-1.276l0.003,-0.002l1.275,0.904c0.921,-0.711 2.336,-0.574 3.331,0.348"/>
   </g>
  </g>
 </g>
</svg>