<svg width="100" height="100" xmlns="http://www.w3.org/2000/svg">
 <!-- Created with Method Draw - http://github.com/duopixel/Method-Draw/ -->
 <g id="Layer_1">
  <title>Layer 1</title>
  <g stroke="null" id="svg_1">
   <g stroke="null" transform="matrix(4.761337797022867,0,0,-4.764855583596707,-8.739681691486556e-7,551.1984971200762) " id="svg_2">
    <path stroke="null" fill="#222222" fill-rule="nonzero" id="svg_1" d="m16.00347,96.25226c-1.349,-0.073 -2.607,2.668 -2.793,6.126c-0.189,3.456 0.752,6.319 2.107,6.394c1.356,0.074 2.604,-2.67 2.793,-6.125c0.196,-3.457 -0.75,-6.32 -2.107,-6.395m-8.242,10.527c0.516,-0.026 1.018,-0.034 1.51,-0.026l2.783,-2.783c-0.009,-0.492 0,-0.996 0.027,-1.513l-4.32,4.322zm-0.081,1.129c-3.459,0.19 -6.201,1.443 -6.125,2.794c0.075,1.353 2.937,2.299 6.393,2.109c3.459,-0.191 6.198,-1.442 6.125,-2.797c-0.074,-1.353 -2.934,-2.293 -6.393,-2.106m11.608,-5.198c-0.056,1.056 -0.185,2.059 -0.363,2.992c0.148,0.123 0.297,0.252 0.434,0.393c2.192,2.191 2.192,5.748 0,7.94c-2.194,2.193 -5.748,2.193 -7.94,0c-0.135,-0.135 -0.26,-0.274 -0.379,-0.421c-0.946,0.183 -1.962,0.314 -3.029,0.373c-5.08,0.28 -7.9,-1.107 -8.008,-3.098c-0.091,-1.599 1.609,-3.101 4.924,-3.773l7.493,-7.494c0.673,-3.312 2.173,-5.008 3.77,-4.921c1.991,0.109 3.381,2.93 3.098,8.009"/>
   </g>
   <g stroke="null" transform="matrix(4.761337797022867,0,0,-4.764855583596707,-8.739681691486556e-7,551.1984971200762) " id="svg_4">
    <path stroke="null" fill="#222222" fill-rule="nonzero" id="svg_3" d="m11.61577,98.35376l-7.934,7.937c-2.184,-2.349 -2.509,-5.703 -0.831,-7.875l-2.133,-3.017l0.005,-0.006l3.016,2.138c2.178,-1.682 5.525,-1.358 7.877,0.823"/>
   </g>
  </g>
 </g>
</svg>