<svg width="1080" height="1080" xmlns="http://www.w3.org/2000/svg" xml:space="preserve" version="1.1">

 <g>
  <title>Layer 1</title>
  <g id="svg_1">
   <path fill="#ffffff" id="svg_2" d="m485.31,508.43c-1.93,3.13 -6.99,5.42 -15.18,6.87c-1.93,0.4 -4.06,0.52 -6.39,0.36c-3.61,-0.08 -4.9,-0.96 -3.86,-2.65c6.75,-11.16 10.84,-24.5 12.29,-40c0.72,-7.55 0.4,-13.62 -0.96,-18.19c-0.8,-2.97 -1.89,-5.3 -3.25,-6.99c-0.48,-0.56 -1.13,-1.16 -1.93,-1.81c-1.13,-0.72 -1.77,-1.12 -1.93,-1.2c-0.96,-0.32 -1.77,-0.52 -2.41,-0.6l-0.36,0c0.16,0 0.12,0 -0.12,0c0.88,-0.08 1.77,-0.24 2.65,-0.48c-0.48,0.16 -0.56,0.16 -0.24,0c-0.48,0.16 -0.64,0.24 -0.48,0.24c-0.64,0.24 -0.92,0.36 -0.84,0.36c-1.13,0.64 -1.97,1.17 -2.53,1.57c-5.95,4.02 -11.37,10.04 -16.27,18.07c-11.17,18.24 -15.58,35.78 -13.25,52.65c1.2,8.52 3.57,14.46 7.11,17.83c3.29,3.05 8.07,5.83 14.34,8.31c1.52,0.64 4.02,1.53 7.47,2.65c3.69,1.2 6.43,2.13 8.19,2.77c6.58,2.41 11.45,5.22 14.58,8.43c4.5,4.58 6.14,10.52 4.94,17.83c-1.05,6.11 -3.78,11.97 -8.19,17.59c-6.67,8.52 -15.95,15.14 -27.83,19.88c-14.94,5.95 -27.63,7.39 -38.07,4.34c-10.2,-2.97 -16.91,-8.8 -20.12,-17.47c-1.85,-4.98 -2.29,-9.48 -1.33,-13.49c0.89,-3.86 3.61,-7.47 8.19,-10.84c4.82,-3.45 10.88,-5.1 18.19,-4.94c2.73,0.08 4.26,0.68 4.58,1.8c0.24,0.81 -0.8,2.05 -3.13,3.74c-2.65,1.93 -3.37,5.78 -2.17,11.57c1.04,5.38 2.85,9.52 5.42,12.41c3.53,3.94 7.39,6.39 11.57,7.35c1.77,0.48 2.93,0.72 3.49,0.72c1.12,0.08 1.73,0.08 1.81,0c0.56,0 1.08,-0.04 1.57,-0.12c-0.72,0.16 -1.13,0.24 -1.2,0.24c1.45,-0.56 1.61,-0.6 0.48,-0.12c0.72,-0.32 1.45,-0.68 2.17,-1.09c0.24,-0.16 0.8,-0.52 1.69,-1.08c1.85,-1.2 3.45,-2.45 4.82,-3.74c3.29,-2.97 5.98,-6.46 8.07,-10.48c4.02,-7.79 5.46,-14.02 4.34,-18.68c-1.05,-4.34 -4.14,-7.99 -9.28,-10.96c-2.41,-1.37 -6.95,-3.21 -13.62,-5.54c-16.15,-5.7 -25.95,-11.52 -29.4,-17.47c-7.23,-12.61 -7.23,-29.28 0,-50c7.15,-20.56 18.07,-35.18 32.77,-43.86c10.52,-6.1 21.28,-9.52 32.29,-10.24c8.83,-0.56 14.94,1.17 18.31,5.18c5.86,6.83 7.39,18.4 4.58,34.7c-2.42,14.22 -6.27,25.75 -11.57,34.58z"/>
   <path fill="#ffffff" id="svg_3" d="m573.46,501.69c0.8,9.48 -1.13,21.05 -5.78,34.7c-0.56,1.61 -3.3,3.33 -8.19,5.18c-3.94,1.37 -7.27,2.09 -10,2.17c-1.77,0.08 -6.71,0.08 -14.82,0c-6.27,0 -11.21,0.2 -14.82,0.6c-1.29,6.43 -2.17,13.62 -2.65,21.57c-0.4,8.84 -0.08,15.26 0.96,19.28c0.96,3.69 2.21,6.23 3.74,7.59c1.77,-1.52 3.21,-2.97 4.34,-4.34c4.98,-6.27 8.03,-12.69 9.16,-19.28c0.16,-1.04 1.93,-2.36 5.3,-3.97c2.89,-1.37 6.14,-2.37 9.76,-3.01c7.31,-1.28 10.72,-0.48 10.24,2.41c-1.77,10.45 -7.39,19.56 -16.87,27.35c-5.46,4.5 -11.13,7.71 -16.99,9.64c-9.8,3.3 -17.43,4.26 -22.89,2.89c-8.35,-2.09 -12.53,-9.8 -12.53,-23.13c-0.08,-8.19 0.64,-17.55 2.17,-28.07c2.81,-18.23 6.91,-32.05 12.29,-41.45c3.45,-7.63 7.35,-13.57 11.69,-17.83c6.34,-6.27 14.86,-10.36 25.54,-12.29c11.49,-2.09 19.4,-0.96 23.74,3.37c3.92,3.84 6.13,9.39 6.61,16.62zm-56.15,94.58c-0.08,0.08 -0.2,0.12 -0.36,0.12l0.36,-0.12zm4.1,-60.49c6.1,-0.88 13.81,-1.45 23.13,-1.69c2.97,-11.08 4.02,-19.88 3.13,-26.39c-0.72,-7.47 -2.69,-12.41 -5.9,-14.82c-0.48,-0.32 -0.89,-0.56 -1.2,-0.72c-0.48,0.4 -0.6,0.52 -0.36,0.36c-0.96,0.96 -1.77,1.93 -2.41,2.89c-1.93,2.73 -3.66,5.58 -5.18,8.55c-3.13,6.51 -5.86,12.77 -8.19,18.8c-1.06,4.11 -2.06,8.44 -3.02,13.02zm22.29,-46.38c0.08,0 0.12,-0.04 0.12,-0.12c0,0.08 -0.04,0.12 -0.12,0.12z"/>
   <path fill="#ffffff" id="svg_4" d="m648.76,501.69c0.8,9.48 -1.13,21.05 -5.78,34.7c-0.56,1.61 -3.3,3.33 -8.19,5.18c-3.94,1.37 -7.27,2.09 -10,2.17c-1.77,0.08 -6.71,0.08 -14.82,0c-6.27,0 -11.21,0.2 -14.82,0.6c-1.29,6.43 -2.17,13.62 -2.65,21.57c-0.4,8.84 -0.08,15.26 0.96,19.28c0.96,3.69 2.21,6.23 3.74,7.59c1.77,-1.52 3.21,-2.97 4.34,-4.34c4.98,-6.27 8.03,-12.69 9.16,-19.28c0.16,-1.04 1.93,-2.36 5.3,-3.97c2.89,-1.37 6.14,-2.37 9.76,-3.01c7.31,-1.28 10.72,-0.48 10.24,2.41c-1.77,10.45 -7.39,19.56 -16.87,27.35c-5.46,4.5 -11.13,7.71 -16.99,9.64c-9.8,3.3 -17.43,4.26 -22.89,2.89c-8.35,-2.09 -12.53,-9.8 -12.53,-23.13c-0.08,-8.19 0.64,-17.55 2.17,-28.07c2.81,-18.23 6.91,-32.05 12.29,-41.45c3.45,-7.63 7.35,-13.57 11.69,-17.83c6.34,-6.27 14.86,-10.36 25.54,-12.29c11.49,-2.09 19.4,-0.96 23.74,3.37c3.92,3.84 6.13,9.39 6.61,16.62zm-56.14,94.58c-0.08,0.08 -0.2,0.12 -0.36,0.12l0.36,-0.12zm4.09,-60.49c6.1,-0.88 13.81,-1.45 23.13,-1.69c2.97,-11.08 4.02,-19.88 3.13,-26.39c-0.72,-7.47 -2.69,-12.41 -5.9,-14.82c-0.48,-0.32 -0.89,-0.56 -1.2,-0.72c-0.48,0.4 -0.6,0.52 -0.36,0.36c-0.96,0.96 -1.77,1.93 -2.41,2.89c-1.93,2.73 -3.66,5.58 -5.18,8.55c-3.13,6.51 -5.86,12.77 -8.19,18.8c-1.05,4.11 -2.05,8.44 -3.02,13.02zm22.29,-46.38c0.08,0 0.12,-0.04 0.12,-0.12c0,0.08 -0.04,0.12 -0.12,0.12z"/>
   <path fill="#ffffff" id="svg_5" d="m718.04,525.06c-8.03,7.71 -16.27,13.3 -24.7,16.75c-1.93,0.8 -3.78,1.53 -5.54,2.17c6.18,10.04 12.81,25.38 19.88,46.03c7.55,21.93 13.86,37.47 18.92,46.63c0.48,0.89 -0.4,2.05 -2.65,3.5c-2.17,1.36 -4.9,2.61 -8.19,3.73c-8.36,2.73 -13.33,2.61 -14.94,-0.36c-5.06,-9.16 -10.77,-22.98 -17.11,-41.45c-6.75,-19.52 -12.25,-33.46 -16.51,-41.81c-4.26,14.14 -6.59,25.26 -6.99,33.38c-0.08,3.37 -4.42,5.9 -13.01,7.59c-3.29,0.64 -6.22,0.92 -8.8,0.85c-2.65,-0.16 -3.98,-0.68 -3.98,-1.57c0.24,-3.86 3.42,-18.07 9.52,-42.65c3.05,-12.12 6.07,-25.5 9.04,-40.12c-1.69,-0.4 -2.17,-1.2 -1.45,-2.41c0.64,-0.96 1.36,-1.97 2.17,-3.01c-0.24,0.32 -0.04,0.08 0.6,-0.72c0.88,-4.34 2.33,-11.85 4.34,-22.53c1.77,-9.64 3.21,-17.19 4.34,-22.65c1.04,-4.82 2.57,-11.24 4.58,-19.28c2.41,-9.48 4.02,-15.9 4.82,-19.28c0.24,-1.04 2.01,-2.33 5.3,-3.86c2.97,-1.36 6.22,-2.37 9.76,-3.01c7.55,-1.36 11,-0.6 10.36,2.29c-0.72,3.13 -2.33,9.56 -4.82,19.28c-2.09,7.95 -3.61,14.38 -4.58,19.28c-0.8,4.1 -2.69,13.9 -5.66,29.4c2.97,-1.36 5.94,-2.57 8.92,-3.61c10.44,-3.69 19.48,-5.42 27.11,-5.18c7.23,0.24 11.93,2.29 14.1,6.14c2.33,3.86 2.08,9.64 -0.72,17.35c-2.1,5.68 -6.8,12.06 -14.11,19.13zm-32.29,-27.11c-2.49,2.01 -4.5,3.86 -6.02,5.54l-0.12,0.12l0,0.12c-3.78,18.64 -5.71,28.15 -5.78,28.56c3.69,-0.64 6.63,-0.44 8.8,0.6c0.08,0 0.16,0 0.24,0c1.36,-0.8 2.49,-1.52 3.37,-2.17c5.54,-3.93 10.32,-8.47 14.34,-13.62c4.1,-5.14 6.67,-10.32 7.71,-15.54c0.96,-4.98 0.44,-8.43 -1.57,-10.36c-1.2,-1.04 -2.41,-1.69 -3.61,-1.93c-0.16,0 -0.28,-0.04 -0.36,-0.12c-1.29,0.4 -1.97,0.52 -2.05,0.36c-0.32,0.16 -0.72,0.32 -1.2,0.48c-0.08,0.08 -0.52,0.28 -1.33,0.6c-0.72,0.32 -1.2,0.52 -1.45,0.6c-1.37,0.64 -2.25,1.08 -2.65,1.33c-1.13,0.64 -2.05,1.2 -2.77,1.69c-2.41,1.45 -4.26,2.7 -5.55,3.74z"/>
   <path fill="#ffffff" id="svg_6" d="m742.65,489.52c0.16,-1.04 1.89,-2.33 5.18,-3.86c2.97,-1.36 6.27,-2.37 9.88,-3.01c7.31,-1.36 10.72,-0.6 10.24,2.29c-3.3,18.07 -7.55,36.95 -12.77,56.63c-2.57,9.4 -5.22,18.72 -7.95,27.95c-3.86,12.85 -5.46,20.89 -4.82,24.1c0.56,2.97 -3.45,5.54 -12.05,7.71c-8.51,2.17 -13.05,1.89 -13.61,-0.85c-0.72,-3.53 1,-12.33 5.18,-26.38c3.05,-10.28 5.7,-19.6 7.95,-27.95c5.3,-20.08 9.55,-38.96 12.77,-56.63zm-3.01,-35.19c-1.61,-1.04 -0.96,-2.49 1.93,-4.34c1.77,-1.12 3.69,-2.05 5.78,-2.77c3.37,-1.2 6.7,-1.97 10,-2.29c3.13,-0.24 5.3,0 6.51,0.72c3.45,2.33 6.39,4.7 8.8,7.11c2.17,2.17 -0.4,4.54 -7.71,7.11c-3.37,1.2 -6.71,1.97 -10,2.29c-3.54,0.32 -5.7,0.08 -6.51,-0.72c-2.42,-2.41 -5.35,-4.78 -8.8,-7.11z"/>
   <path fill="#ffffff" id="svg_7" d="m844.97,483.49c2.41,0.16 3.77,0.8 4.1,1.93c0.32,1.13 -0.57,2.33 -2.65,3.61c-5.78,3.54 -11.85,5.14 -18.2,4.82c-2.65,-0.08 -5.78,-0.16 -9.4,-0.24c-2.17,7.79 -4.02,15.3 -5.54,22.53c-0.96,4.26 -1.93,9.8 -2.89,16.63c-1.37,8.84 -2.21,14.38 -2.53,16.63c-2.25,12.77 -3.09,21.69 -2.53,26.75c0.56,5.3 1.77,9.72 3.61,13.25c5.86,-9.07 9.28,-17.75 10.24,-26.03c0.48,-3.45 4.94,-5.94 13.37,-7.47c3.3,-0.64 6.19,-0.88 8.68,-0.72c2.65,0.08 3.93,0.48 3.86,1.2c-1.77,14.7 -7.71,27.28 -17.83,37.72c-7.63,7.71 -17.51,11.61 -29.64,11.68c-6.75,0 -11.68,-3.65 -14.82,-10.96c-3.45,-7.79 -4.14,-18.03 -2.05,-30.73c0.32,-2.17 1.13,-7.75 2.41,-16.75c1.04,-6.83 1.93,-12.41 2.65,-16.75c2.17,-11.73 5.14,-24.06 8.92,-36.99c-9.64,0.16 -16.26,0.24 -19.88,0.24c-2.49,0 -3.89,-0.6 -4.22,-1.81c-0.24,-1.12 0.68,-2.33 2.77,-3.61c5.22,-3.29 11.28,-4.94 18.19,-4.94c1.77,0 3.86,0 6.27,0c2.89,-8.99 6.23,-18.63 10,-28.92c1.12,-3.05 6.18,-5.38 15.18,-6.99c7.95,-1.45 11.37,-0.68 10.24,2.29c-4.5,12.21 -8.31,23.3 -11.44,33.25c8.99,0.02 16.7,0.14 23.13,0.38z"/>
   <path fill="#ffffff" id="svg_8" d="m923.32,490.72c0.89,-2.49 5.42,-4.62 13.62,-6.39c8.11,-1.77 12.09,-1.57 11.93,0.6c-1.52,22.17 -8.79,60.57 -21.81,115.19c-0.24,1.04 -2.01,2.33 -5.3,3.86c-2.98,1.45 -6.23,2.49 -9.76,3.13c-7.55,1.37 -11.01,0.56 -10.36,-2.41c6.83,-28.36 10.68,-44.62 11.57,-48.8c-1.04,1.85 -1.97,3.46 -2.77,4.82c-8.04,13.74 -15.58,23.78 -22.65,30.12c-10.52,9.32 -22.05,13.25 -34.58,11.81c-1.04,-0.08 -1.8,-0.6 -2.29,-1.56c-1.2,-40.73 8.07,-77.84 27.83,-111.33c1.85,-3.13 6.91,-5.42 15.18,-6.87c1.93,-0.4 4.06,-0.56 6.39,-0.48c3.61,0.16 4.9,1.08 3.86,2.77c-16.47,27.95 -25.54,59 -27.23,93.13c4.18,-6.1 8.43,-13.21 12.77,-21.32c18.94,-34.78 30.14,-56.87 33.6,-66.27z"/>
   <path fill="#ffffff" id="svg_9" d="m1027.9,489.64c2.49,6.43 2.17,17.27 -0.96,32.53c-3.13,15.02 -7.23,29 -12.29,41.93c-6.34,16.07 -12.89,27.03 -19.64,32.9c-6.67,5.86 -15.14,9.32 -25.43,10.36c-4.58,0.4 -8.55,-0.16 -11.93,-1.69c-4.02,17.75 -7.31,33.21 -9.88,46.39c-0.24,1.04 -2.01,2.37 -5.3,3.98c-2.97,1.36 -6.27,2.36 -9.88,3.01c-7.39,1.37 -10.8,0.61 -10.24,-2.29c3.05,-15.83 7.39,-35.79 13.01,-59.89c8.19,-35.1 12.82,-54.98 13.86,-59.64c-1.45,-0.48 -1.93,-1.33 -1.45,-2.53c1.52,-3.21 2.77,-5.9 3.73,-8.07c3.05,-14.14 5.62,-27.07 7.71,-38.8c0.16,-1.04 1.93,-2.33 5.3,-3.86c2.97,-1.36 6.23,-2.37 9.76,-3.01c7.39,-1.36 10.84,-0.6 10.36,2.29c-0.08,0.48 -0.2,1.08 -0.36,1.81c-0.16,0.89 -0.28,1.49 -0.36,1.81c7.39,-4.02 14.9,-6.18 22.53,-6.51c11.66,-0.4 18.81,2.69 21.46,9.28zm-24.7,27.23c0.72,-4.98 0.92,-9.08 0.6,-12.29c-0.56,-5.78 -1.89,-9.6 -3.97,-11.45c-0.81,-0.72 -1.57,-1.28 -2.29,-1.69c-1.52,1.45 -2.85,2.77 -3.97,3.98c-2.65,2.97 -5.3,6.63 -7.95,10.96c-2.89,4.66 -5.78,9.96 -8.68,15.9c-1.45,6.59 -7.11,31.17 -16.99,73.74c0.32,-0.16 0.68,-0.28 1.09,-0.36c7.63,-2.81 12.81,-3.53 15.54,-2.17c6.19,-8.83 11.93,-21.36 17.23,-37.59c4.81,-14.94 7.95,-27.95 9.39,-39.03z"/>
  </g>
  <path fill="#ffffff" id="svg_10" d="m104.12,684.6l194.02,0c31.03,0 56.18,-25.15 56.18,-56.18l0,-194.03c0,-31.03 -25.15,-56.18 -56.18,-56.18l-194.02,0c-31.03,0 -56.18,25.15 -56.18,56.18l0,194.02c0,31.03 25.15,56.19 56.18,56.19z"/>
  <g id="svg_11">
   <path id="svg_12" fill="#000000" d="m164.36,531.52c2.33,-1.44 4.54,-2.91 6.74,-4.69l1.27,-1.03l-0.64,-1.27c-0.45,-0.88 -0.91,-1.71 -1.38,-2.52c-1.29,-0.17 -2.71,-0.38 -4.24,-0.64c0.51,1.03 1,2.08 1.44,3.12c-1.74,1.04 -3.59,2.05 -5.43,2.96c-2.3,1.13 -4.66,2.14 -7.03,3.08c-4.76,1.83 -9.64,3.27 -14.57,4.03c-4.93,0.78 -9.91,0.87 -14.74,0.1c-2.41,-0.42 -4.82,-1 -6.97,-1.89c-2.21,-0.85 -4.25,-2.11 -6.1,-3.6c-3.69,-2.99 -6.53,-7.21 -7.64,-12c-0.57,-2.38 -0.73,-4.88 -0.47,-7.38c0.29,-2.49 1.01,-4.96 2.11,-7.25c0.94,-2.03 2.24,-3.89 3.78,-5.55c-0.26,-0.22 -0.53,-0.44 -0.79,-0.66c-0.23,0.2 -0.46,0.41 -0.67,0.63l-1.39,1.48l-1.25,1.61c-0.43,0.53 -0.74,1.14 -1.12,1.71c-1.39,2.35 -2.48,4.91 -3.09,7.63c-0.59,2.72 -0.73,5.56 -0.38,8.38c0.36,2.81 1.16,5.6 2.49,8.15c1.32,2.55 3.07,4.89 5.14,6.92c2.06,2.04 4.49,3.73 7.13,4.97c2.68,1.24 5.39,2.08 8.17,2.63c5.57,1.11 11.3,0.99 16.78,0.05c5.49,-0.96 10.75,-2.75 15.69,-5.08c2.46,-1.15 4.84,-2.48 7.16,-3.89z" class="st0"/>
   <path id="svg_13" fill="#000000" d="m100.26,463.81c0.21,-7.64 3.02,-15.18 7.96,-20.81c2.43,-2.83 5.3,-5.26 8.47,-7.11c3.19,-1.82 6.63,-3.09 10.15,-3.74c7.07,-1.36 14.38,-0.01 20.57,3.13c3.1,1.58 5.99,3.57 8.43,6.03c0.67,0.55 1.2,1.24 1.79,1.87l0.87,0.95c0.28,0.34 0.55,0.7 0.83,1.05c1.13,1.39 2.14,2.87 3.15,4.34l1.42,2.28c0.45,0.78 0.86,1.57 1.3,2.36c0.46,0.77 0.81,1.61 1.22,2.4c0.42,0.8 0.76,1.63 1.12,2.46c1.4,3.32 2.61,6.75 3.54,10.29c1.9,7.05 2.87,14.44 3.24,21.89c0.16,3.73 0.18,7.48 0.01,11.23c-0.08,1.88 -0.19,3.75 -0.36,5.62c-0.1,1.13 -0.22,2.28 -0.36,3.41c-0.7,0.01 -1.42,0.01 -2.11,0c-1.55,-0.02 -3.1,-0.07 -4.65,-0.17c-3.11,-0.19 -6.22,-0.51 -9.32,-0.96c-6.19,-0.92 -12.35,-2.37 -18.28,-4.5c-5.94,-2.11 -11.67,-4.89 -16.98,-8.36c-5.33,-3.44 -10.13,-7.68 -14.38,-12.41c2.13,2.36 4.31,4.68 6.71,6.76c1.15,1.1 2.41,2.08 3.61,3.11c1.27,0.96 2.5,1.97 3.82,2.87c5.16,3.74 10.76,6.89 16.59,9.55c5.84,2.65 11.94,4.8 18.19,6.45c3.13,0.82 6.3,1.51 9.5,2.06c1.6,0.28 3.21,0.51 4.84,0.71c1.64,0.2 3.21,0.36 4.99,0.44l2.09,0.09l0.61,-2.29c0.55,-2.04 0.97,-3.93 1.34,-5.9c0.37,-1.96 0.69,-3.92 0.96,-5.89c0.51,-3.94 0.86,-7.92 0.94,-11.92c0.19,-7.99 -0.52,-16.09 -2.49,-24c-1.01,-3.95 -2.28,-7.86 -3.95,-11.62c-1.65,-3.77 -3.65,-7.42 -6.04,-10.81c-1.22,-1.68 -2.45,-3.35 -3.85,-4.88c-0.34,-0.39 -0.67,-0.79 -1.03,-1.17l-1.14,-1.13c-0.77,-0.74 -1.49,-1.54 -2.34,-2.19c-3.23,-2.79 -6.93,-5.04 -10.87,-6.61c-3.93,-1.6 -8.11,-2.53 -12.31,-2.78c-4.2,-0.26 -8.42,0.31 -12.39,1.49c-3.97,1.19 -7.69,3.07 -10.99,5.47c-3.27,2.43 -6.06,5.41 -8.36,8.66l-0.84,1.24c-0.28,0.41 -0.56,0.82 -0.78,1.27c-0.47,0.88 -0.96,1.74 -1.42,2.62l-1.17,2.73c-0.38,0.91 -0.62,1.88 -0.94,2.81c-1.13,3.77 -1.63,7.7 -1.55,11.6c0.17,7.81 3.19,15.41 8.26,21.24c-5,-5.84 -7.9,-13.54 -7.62,-21.23z" class="st0"/>
   <path id="svg_14" fill="#000000" d="m298.52,442.25c-1.94,-0.32 -3.87,-0.51 -5.75,-0.44c-1.87,0.08 -3.69,0.32 -5.38,0.78c-1.69,0.46 -3.27,1.08 -4.73,1.81c-1.45,0.76 -2.78,1.62 -4.02,2.57c-1.61,1.25 -3.05,2.63 -4.34,4.1c-1.21,-1.25 -2.49,-2.45 -3.82,-3.57c-1.94,-1.6 -3.99,-3.06 -6.14,-4.36c-2.16,-1.29 -4.41,-2.42 -6.72,-3.41c-2.33,-0.94 -4.73,-1.71 -7.17,-2.32c-1.11,-0.27 -2.23,-0.49 -3.35,-0.69c0.15,-0.38 0.3,-0.75 0.45,-1.13c1.26,-3.02 2.79,-5.91 4.64,-8.45c0.93,-1.27 1.93,-2.46 3,-3.53c1.09,-1.06 2.24,-2 3.45,-2.8c1.21,-0.8 2.49,-1.41 3.79,-1.9c1.3,-0.48 2.65,-0.75 3.99,-0.95l0.06,-0.01c0.29,-0.04 0.57,-0.12 0.85,-0.22c2.22,-0.83 3.35,-3.3 2.52,-5.52s-3.3,-3.35 -5.52,-2.52c-1.86,0.7 -3.67,1.52 -5.32,2.59c-1.64,1.07 -3.17,2.28 -4.49,3.64c-1.32,1.36 -2.48,2.83 -3.49,4.36c-0.99,1.54 -1.83,3.14 -2.55,4.76c-1.43,3.25 -2.36,6.6 -2.98,9.96c-0.09,0.48 -0.16,0.96 -0.24,1.44c-0.75,-0.1 -1.49,-0.2 -2.24,-0.27c-5.01,-0.4 -10.08,-0.1 -14.97,0.99c-0.57,0.13 -1.14,0.27 -1.71,0.42c-2.65,0.63 -5.26,1.47 -7.82,2.54c-12.56,5.22 -22.33,15.03 -27.51,27.6c-5.18,12.57 -5.16,26.41 0.06,38.97c5.13,12.32 14.71,22 26.97,27.25c0.03,0.01 0.06,0.02 0.08,0.04c0.1,0.04 0.19,0.07 0.29,0.1c0.12,0.06 0.25,0.12 0.38,0.18c15.45,6.32 24.77,21.34 24.64,37.1c-7.76,-0.28 -15.52,-1.39 -23.12,-3.49c-4.4,-1.24 -8.73,-2.8 -12.98,-4.63c-4.22,-1.9 -8.36,-4.06 -12.38,-6.51c-7.52,-4.69 -14.58,-10.34 -20.98,-16.78c1.01,-1.23 2.08,-2.42 3.21,-3.57c1.28,-1.26 2.61,-2.5 4.04,-3.63c1.4,-1.2 2.93,-2.22 4.47,-3.3c-7.3,1.76 -14.23,5.84 -19.7,11.54c-5.5,5.7 -9.45,13.01 -11.4,20.94c-0.45,1.99 -0.84,4.01 -1.05,6.05c-0.24,2.04 -0.27,4.1 -0.25,6.17c0.1,4.13 0.76,8.25 1.9,12.24c0.31,0.99 0.59,2 0.97,2.96l0.55,1.46l0.61,1.44c0.39,0.97 0.89,1.88 1.33,2.83c0.5,0.92 0.97,1.84 1.51,2.74c2.17,3.56 4.75,6.89 7.74,9.82c1.7,1.63 3.51,3.16 5.41,4.55l-16.99,43.9l26.05,-38.69l1.15,0.48c0.95,0.42 1.94,0.75 2.91,1.11c0.99,0.32 1.98,0.63 2.99,0.89c0.46,0.12 0.92,0.24 1.38,0.35c24.32,6.42 50.3,-6.05 60.08,-29.95c10.63,-25.99 -1.86,-55.78 -27.85,-66.41c-0.1,-0.04 -0.2,-0.07 -0.3,-0.11c-0.1,-0.05 -0.19,-0.1 -0.29,-0.14c-9.56,-4.09 -17.02,-11.63 -21.02,-21.24c-4.07,-9.79 -4.09,-20.57 -0.05,-30.37c4.04,-9.8 11.65,-17.44 21.44,-21.51c1.81,-0.75 3.66,-1.37 5.53,-1.84c0.64,-0.14 1.28,-0.28 1.93,-0.39c1.92,-0.29 3.85,-0.55 5.79,-0.6c1.94,-0.04 3.88,0.01 5.8,0.24c1.92,0.22 3.83,0.55 5.7,1.02c1.87,0.49 3.7,1.11 5.5,1.84c1.79,0.74 3.52,1.6 5.2,2.57c1.67,0.98 3.24,2.11 4.77,3.29c1.52,1.19 2.94,2.52 4.28,3.92c1.34,1.4 2.53,2.94 3.69,4.5c1.13,1.58 2.13,3.27 3.04,5c0.87,1.76 1.68,3.55 2.34,5.41c1.28,3.72 2.09,7.63 2.32,11.61c0.47,7.97 -1.35,16.22 -5.35,23.56c-1.99,3.67 -4.53,7.11 -7.53,10.2c-1.5,1.55 -3.14,2.98 -4.86,4.35c-1.72,1.38 -3.58,2.58 -5.49,3.78c8.73,-2.2 16.88,-7.62 22.73,-15.1c5.88,-7.46 9.42,-16.98 9.85,-26.8c0.46,-9.84 -2.26,-19.87 -7.66,-28.29c-1.24,-1.95 -2.63,-3.8 -4.15,-5.55c1.59,-1.1 3.26,-2.07 5.01,-2.84c1.3,-0.57 2.63,-1.04 3.99,-1.39c1.37,-0.33 2.75,-0.53 4.13,-0.6c1.38,-0.07 2.77,0.05 4.11,0.27c1.35,0.22 2.68,0.65 3.96,1.12l0.05,0.02c0.27,0.1 0.56,0.17 0.85,0.22c2.31,0.38 4.22,-1.04 4.26,-3.18s-1.77,-4.21 -4.08,-4.59zm-127.94,102.37c0.07,-0.11 0.15,-0.22 0.22,-0.33c5.3,7.31 11.43,14.12 18.36,20.22c3.88,3.35 8,6.47 12.33,9.35c4.36,2.81 8.93,5.38 13.69,7.62c7.52,3.5 15.5,6.15 23.69,7.98c-2.43,4.62 -5.68,8.58 -9.49,11.8c-6.09,-1.42 -12.1,-3.38 -17.92,-5.98c-8.15,-3.59 -15.93,-8.31 -23.18,-13.9c-7.25,-5.6 -13.96,-12.07 -20.05,-19.18c-1.15,-1.35 -2.27,-2.74 -3.38,-4.13c1.17,-4.69 3.07,-9.25 5.73,-13.45zm23.27,64.76c-0.41,-0.12 -0.83,-0.23 -1.24,-0.37c-3.07,-1.02 -6.03,-2.37 -8.78,-4.04c-2.77,-1.64 -5.3,-3.64 -7.58,-5.88c-2.32,-2.21 -4.32,-4.75 -6.04,-7.46c-1.77,-2.69 -3.12,-5.64 -4.23,-8.68c-1.1,-3.05 -1.77,-6.24 -2.19,-9.48c-0.16,-1.62 -0.28,-3.26 -0.25,-4.9c-0.03,-1.49 0.08,-2.98 0.23,-4.47c0.17,0.3 0.34,0.61 0.52,0.91c4.96,8.3 10.74,16.21 17.42,23.48c6.68,7.26 14.25,13.88 22.69,19.49c1.24,0.83 2.5,1.63 3.78,2.41c-4.71,0.53 -9.56,0.23 -14.33,-1.01z" class="st0"/>
  </g>
 </g>
</svg>