<svg width="310" height="310" xmlns="http://www.w3.org/2000/svg" version="1.1" xml:space="preserve">
 <g>
  <title>Layer 1</title>
  <g stroke="null" id="svg_11">
   <path stroke="null" class="st0" d="m113.62769,153.38722c2.9154,-1.80179 5.68065,-3.64112 8.43339,-5.86834l1.58908,-1.28878l-0.8008,-1.58908c-0.56306,-1.1011 -1.13863,-2.13963 -1.72672,-3.15314c-1.61411,-0.21271 -3.39087,-0.47547 -5.30528,-0.8008c0.63814,1.28878 1.25125,2.60259 1.80179,3.90389c-2.17717,1.3013 -4.49197,2.56505 -6.79426,3.70369c-2.87786,1.41391 -5.8308,2.67766 -8.79625,3.85384c-5.95593,2.28978 -12.062,4.09157 -18.23064,5.04252c-6.16864,0.97597 -12.39984,1.08858 -18.44336,0.12512c-3.0155,-0.52552 -6.031,-1.25125 -8.72118,-2.36485c-2.76525,-1.06356 -5.31779,-2.64013 -7.6326,-4.50448c-4.6171,-3.74122 -8.17063,-9.02148 -9.55951,-15.01494c-0.71321,-2.97796 -0.91341,-6.10608 -0.58809,-9.23419c0.36286,-3.1156 1.26376,-6.20618 2.64013,-9.07153c1.17617,-2.54003 2.80279,-4.86734 4.72971,-6.94441c-0.32532,-0.27527 -0.66316,-0.55055 -0.98848,-0.82582c-0.28779,0.25025 -0.57557,0.51301 -0.83833,0.78828l-1.73923,1.85184l-1.56406,2.0145c-0.53804,0.66316 -0.92592,1.42642 -1.40139,2.13963c-1.73923,2.94043 -3.10309,6.14361 -3.86635,9.547c-0.73823,3.40339 -0.91341,6.95692 -0.47547,10.48544c0.45045,3.516 1.45144,7.00697 3.1156,10.19765c1.65164,3.19068 3.84132,6.11859 6.4314,8.65862c2.57757,2.55254 5.61809,4.66715 8.92138,6.21869c3.35334,1.55154 6.74421,2.60259 10.22267,3.29078c6.96944,1.38888 14.13907,1.23873 20.9959,0.06256c6.86934,-1.2012 13.45089,-3.44092 19.63204,-6.35633c3.07806,-1.43893 6.05603,-3.10309 8.95892,-4.86734z" fill="#ffffff" id="svg_12"/>
   <path stroke="null" class="st0" d="m33.42286,68.6654c0.26276,-9.55951 3.77876,-18.9939 9.95991,-26.03842c3.04053,-3.54102 6.6316,-6.58155 10.59805,-8.89635c3.99147,-2.27727 8.29576,-3.86635 12.70014,-4.67966c8.8463,-1.70169 17.99291,-0.01251 25.73812,3.9164c3.87886,1.97697 7.49496,4.46695 10.548,7.54501c0.83833,0.68818 1.50149,1.55154 2.23973,2.33983l1.08858,1.18868c0.35035,0.42542 0.68818,0.87587 1.03853,1.31381c1.41391,1.73923 2.67766,3.59107 3.94142,5.4304l1.77677,2.85284c0.56306,0.97597 1.07607,1.96446 1.62662,2.95294c0.57557,0.96346 1.01351,2.0145 1.52652,3.00299c0.52552,1.001 0.95095,2.03953 1.40139,3.07806c1.75174,4.15413 3.26575,8.44591 4.42941,12.87531c2.37737,8.82128 3.59107,18.06798 4.05403,27.38976c0.2002,4.66715 0.22522,9.35932 0.01251,14.05148c-0.1001,2.35234 -0.23774,4.69217 -0.45045,7.032c-0.12512,1.41391 -0.27527,2.85284 -0.45045,4.26675c-0.87587,0.01251 -1.77677,0.01251 -2.64013,0c-1.93943,-0.02502 -3.87886,-0.08759 -5.81829,-0.21271c-3.89137,-0.23774 -7.78275,-0.63814 -11.66161,-1.2012c-7.74521,-1.15115 -15.45288,-2.96545 -22.87276,-5.6306c-7.4324,-2.64013 -14.60203,-6.11859 -21.24615,-10.46041c-6.66914,-4.30428 -12.67512,-9.60956 -17.99291,-15.52795c2.66515,2.95294 5.39287,5.85583 8.39586,8.45842c1.43893,1.37637 3.0155,2.60259 4.517,3.89137c1.58908,1.2012 3.12811,2.46495 4.77976,3.59107c6.45643,4.67966 13.4634,8.62108 20.75816,11.94939c7.30727,3.3158 14.93987,6.00598 22.76015,8.07053c3.9164,1.02602 7.88285,1.88938 11.88683,2.57757c2.00199,0.35035 4.0165,0.63814 6.05603,0.88838c2.05204,0.25025 4.0165,0.45045 6.24371,0.55055l2.6151,0.11261l0.76326,-2.86535c0.68818,-2.55254 1.21371,-4.91739 1.67667,-7.38235c0.46296,-2.45244 0.86336,-4.90488 1.2012,-7.36983c0.63814,-4.92991 1.07607,-9.90986 1.17617,-14.91484c0.23774,-9.99745 -0.65065,-20.13254 -3.1156,-30.02989c-1.26376,-4.94242 -2.85284,-9.83479 -4.94242,-14.53947c-2.06455,-4.71719 -4.56705,-9.28424 -7.55752,-13.52596c-1.52652,-2.10209 -3.06555,-4.19167 -4.81729,-6.10608c-0.42542,-0.48799 -0.83833,-0.98848 -1.28878,-1.46396l-1.42642,-1.41391c-0.96346,-0.92592 -1.86436,-1.92692 -2.92791,-2.74023c-4.04152,-3.49097 -8.67113,-6.30628 -13.60104,-8.27073c-4.91739,-2.00199 -10.1476,-3.16565 -15.40283,-3.47846c-5.25523,-0.32532 -10.53549,0.38789 -15.50293,1.86436c-4.96744,1.48898 -9.62208,3.84132 -13.75119,6.84431c-4.09157,3.04053 -7.58255,6.76924 -10.46041,10.83578l-1.05105,1.55154c-0.35035,0.51301 -0.7007,1.02602 -0.97597,1.58908c-0.58809,1.1011 -1.2012,2.17717 -1.77677,3.27826l-1.46396,3.4159c-0.47547,1.13863 -0.77577,2.35234 -1.17617,3.516c-1.41391,4.71719 -2.03953,9.63459 -1.93943,14.51445c0.21271,9.77223 3.99147,19.28169 10.33529,26.57645c-6.25623,-7.30727 -9.88484,-16.94186 -9.53449,-26.56394z" fill="#ffffff" id="svg_13"/>
   <path stroke="null" class="st0" d="m281.49476,41.68855c-2.42742,-0.4004 -4.84232,-0.63814 -7.19466,-0.55055c-2.33983,0.1001 -4.6171,0.4004 -6.7317,0.97597c-2.1146,0.57557 -4.09157,1.35134 -5.91839,2.26475c-1.81431,0.95095 -3.47846,2.02702 -5.03001,3.2157c-2.0145,1.56406 -3.8163,3.29078 -5.4304,5.13011c-1.51401,-1.56406 -3.1156,-3.06555 -4.77976,-4.46695c-2.42742,-2.00199 -4.99247,-3.82881 -7.68265,-5.45543c-2.70269,-1.61411 -5.51799,-3.02801 -8.40837,-4.26675c-2.9154,-1.17617 -5.91839,-2.13963 -8.97143,-2.90289c-1.38888,-0.33784 -2.79028,-0.61311 -4.19167,-0.86336c0.18769,-0.47547 0.37537,-0.93843 0.56306,-1.41391c1.57657,-3.77876 3.49097,-7.39486 5.80578,-10.57302c1.16366,-1.58908 2.4149,-3.07806 3.75374,-4.4169c1.36386,-1.32632 2.80279,-2.50249 4.3168,-3.50349c1.51401,-1.001 3.1156,-1.76426 4.74222,-2.37737c1.62662,-0.6006 3.3158,-0.93843 4.99247,-1.18868l0.07507,-0.01251c0.36286,-0.05005 0.71321,-0.15015 1.06356,-0.27527c2.77776,-1.03853 4.19167,-4.12911 3.15314,-6.90687s-4.12911,-4.19167 -6.90687,-3.15314c-2.32732,0.87587 -4.59207,1.90189 -6.65663,3.24073c-2.05204,1.33883 -3.96645,2.85284 -5.61809,4.55453c-1.65164,1.70169 -3.10309,3.54102 -4.36685,5.45543c-1.23873,1.92692 -2.28978,3.92891 -3.19068,5.95593c-1.78928,4.06655 -2.95294,8.25822 -3.72871,12.4624c-0.11261,0.6006 -0.2002,1.2012 -0.3003,1.80179c-0.93843,-0.12512 -1.86436,-0.25025 -2.80279,-0.33784c-6.26874,-0.5005 -12.61255,-0.12512 -18.73114,1.23873c-0.71321,0.16266 -1.42642,0.33784 -2.13963,0.52552c-3.3158,0.78828 -6.58155,1.83933 -9.78474,3.17816c-15.71564,6.5315 -27.94031,18.80622 -34.42176,34.53437c-6.48145,15.72815 -6.45643,33.04539 0.07507,48.76103c6.41889,15.41534 18.40582,27.5274 33.74609,34.09643c0.03754,0.01251 0.07507,0.02502 0.1001,0.05005c0.12512,0.05005 0.23774,0.08759 0.36286,0.12512c0.15015,0.07507 0.31281,0.15015 0.47547,0.22522c19.33174,7.90787 30.99335,26.70158 30.83068,46.4212c-9.70966,-0.35035 -19.41933,-1.73923 -28.92879,-4.36685c-5.50548,-1.55154 -10.92337,-3.50349 -16.24116,-5.79327c-5.28026,-2.37737 -10.46041,-5.08006 -15.49042,-8.14561c-9.40936,-5.86834 -18.24316,-12.93788 -26.25113,-20.9959c1.26376,-1.53903 2.60259,-3.02801 4.0165,-4.46695c1.60159,-1.57657 3.26575,-3.12811 5.05503,-4.54202c1.75174,-1.50149 3.66615,-2.77776 5.59307,-4.12911c-9.13409,2.20219 -17.80522,7.30727 -24.64953,14.43937c-6.88185,7.1321 -11.82427,16.2787 -14.2642,26.20108c-0.56306,2.48998 -1.05105,5.01749 -1.31381,7.57003c-0.3003,2.55254 -0.33784,5.13011 -0.31281,7.72018c0.12512,5.16764 0.95095,10.32277 2.37737,15.31524c0.38789,1.23873 0.73823,2.50249 1.21371,3.70369l0.68818,1.82682l0.76326,1.80179c0.48799,1.21371 1.11361,2.35234 1.66416,3.54102c0.62562,1.15115 1.21371,2.30229 1.88938,3.42841c2.7152,4.45443 5.94342,8.62108 9.68464,12.28723c2.12712,2.03953 4.39187,3.95394 6.76924,5.69317l-21.25866,54.92967l32.59494,-48.41068l1.43893,0.6006c1.18868,0.52552 2.42742,0.93843 3.64112,1.38888c1.23873,0.4004 2.47747,0.78828 3.74122,1.11361c0.57557,0.15015 1.15115,0.3003 1.72672,0.43794c30.43029,8.03299 62.93764,-7.57003 75.17482,-37.4748c13.30074,-32.51987 -2.32732,-69.79446 -34.84718,-83.0952c-0.12512,-0.05005 -0.25025,-0.08759 -0.37537,-0.13764c-0.12512,-0.06256 -0.23774,-0.12512 -0.36286,-0.17517c-11.96191,-5.11759 -21.2962,-14.55198 -26.30118,-26.57645c-5.09257,-12.24969 -5.11759,-25.73812 -0.06256,-38.00032c5.05503,-12.2622 14.57701,-21.82172 26.8267,-26.91429c2.26475,-0.93843 4.57956,-1.71421 6.91939,-2.30229c0.8008,-0.17517 1.60159,-0.35035 2.4149,-0.48799c2.40239,-0.36286 4.81729,-0.68818 7.24471,-0.75075c2.42742,-0.05005 4.85483,0.01251 7.25722,0.3003c2.40239,0.27527 4.79227,0.68818 7.1321,1.27627c2.33983,0.61311 4.62961,1.38888 6.88185,2.30229c2.23973,0.92592 4.40438,2.00199 6.50648,3.2157c2.08958,1.22622 4.05403,2.64013 5.96844,4.1166c1.90189,1.48898 3.67866,3.15314 5.35533,4.90488c1.67667,1.75174 3.16565,3.67866 4.6171,5.6306c1.41391,1.97697 2.66515,4.09157 3.80379,6.25623c1.08858,2.20219 2.10209,4.44192 2.92791,6.76924c1.60159,4.65463 2.6151,9.547 2.90289,14.52696c0.58809,9.97243 -1.68918,20.2952 -6.69416,29.47934c-2.48998,4.59207 -5.66814,8.89635 -9.42188,12.7627c-1.87687,1.93943 -3.92891,3.72871 -6.08105,5.44292c-2.15214,1.72672 -4.47946,3.22821 -6.86934,4.72971c10.92337,-2.75274 21.12102,-9.53449 28.44081,-18.8938c7.35732,-9.33429 11.78673,-21.24615 12.32477,-33.53337c0.57557,-12.31225 -2.82781,-24.86224 -9.58454,-35.39773c-1.55154,-2.43993 -3.29078,-4.75473 -5.19267,-6.94441c1.98948,-1.37637 4.07906,-2.59008 6.26874,-3.55354c1.62662,-0.71321 3.29078,-1.3013 4.99247,-1.73923c1.71421,-0.41291 3.44092,-0.66316 5.16764,-0.75075c1.72672,-0.08759 3.46595,0.06256 5.14262,0.33784c1.68918,0.27527 3.35334,0.81331 4.95493,1.40139l0.06256,0.02502c0.33784,0.12512 0.7007,0.21271 1.06356,0.27527c2.89038,0.47547 5.28026,-1.3013 5.33031,-3.97896s-2.2147,-5.26774 -5.10508,-5.74322zm-160.08433,128.08998c0.08759,-0.13764 0.18769,-0.27527 0.27527,-0.41291c6.6316,9.1466 14.30173,17.66758 22.97286,25.30018c4.85483,4.19167 10.00996,8.09556 15.42785,11.69914c5.45543,3.516 11.17362,6.7317 17.12955,9.53449c9.40936,4.37936 19.3943,7.69516 29.642,9.98494c-3.04053,5.78075 -7.10707,10.73568 -11.87432,14.76469c-7.62008,-1.77677 -15.14007,-4.22921 -22.42232,-7.48245c-10.19765,-4.49197 -19.93234,-10.39785 -29.00387,-17.39231c-9.07153,-7.00697 -17.46738,-15.10253 -25.08747,-23.99889c-1.43893,-1.68918 -2.84033,-3.42841 -4.22921,-5.16764c1.46396,-5.86834 3.84132,-11.57402 7.16964,-16.82925zm29.11648,81.03065c-0.51301,-0.15015 -1.03853,-0.28779 -1.55154,-0.46296c-3.84132,-1.27627 -7.54501,-2.96545 -10.98593,-5.05503c-3.46595,-2.05204 -6.6316,-4.55453 -9.48444,-7.35732c-2.90289,-2.76525 -5.40538,-5.94342 -7.55752,-9.33429c-2.2147,-3.36585 -3.90389,-7.05702 -5.29277,-10.86081c-1.37637,-3.8163 -2.2147,-7.80777 -2.74023,-11.86181c-0.2002,-2.02702 -0.35035,-4.07906 -0.31281,-6.1311c-0.03754,-1.86436 0.1001,-3.72871 0.28779,-5.59307c0.21271,0.37537 0.42542,0.76326 0.65065,1.13863c6.20618,10.38534 13.43837,20.28269 21.79669,29.37924c8.35832,9.08404 17.83025,17.36729 28.39076,24.38677c1.55154,1.03853 3.12811,2.03953 4.72971,3.0155c-5.89337,0.66316 -11.96191,0.28779 -17.93035,-1.26376z" fill="#ffffff" id="svg_14"/>
  </g>
 </g>

</svg>